<svg width="68" height="68" viewBox="0 0 68 68" fill="none" xmlns="http://www.w3.org/2000/svg">
<g clip-path="url(#clip0)">
<circle cx="34" cy="34" r="32" stroke="#1B2A39" stroke-width="4"/>
<path d="M45.168 31.4C46.064 31.4 46.8107 31.6987 47.408 32.296C48.0053 32.856 48.304 33.584 48.304 34.48C48.304 35.376 48.0053 36.1227 47.408 36.72C46.8107 37.28 46.064 37.56 45.168 37.56H37.328V44.896C37.328 45.9413 36.9733 46.8 36.264 47.472C35.592 48.144 34.7333 48.48 33.688 48.48C32.6427 48.48 31.7653 48.144 31.056 47.472C30.384 46.8 30.048 45.9413 30.048 44.896V37.56H22.376C21.48 37.56 20.7333 37.2613 20.136 36.664C19.5387 36.0667 19.24 35.32 19.24 34.424C19.24 33.528 19.5387 32.8 20.136 32.24C20.7333 31.68 21.48 31.4 22.376 31.4H30.048V23.056C30.048 22.0107 30.384 21.152 31.056 20.48C31.7653 19.808 32.6613 19.472 33.744 19.472C34.7893 19.472 35.648 19.808 36.32 20.48C36.992 21.152 37.328 22.0107 37.328 23.056V31.4H45.168Z" fill="#1B2A39"/>
</g>
<defs>
<clipPath id="clip0">
<rect width="68" height="68" fill="white"/>
</clipPath>
</defs>
</svg>
