<svg width="81" height="62" viewBox="0 0 81 62" fill="none" xmlns="http://www.w3.org/2000/svg">
<path d="M55.1303 37.1327C52.454 40.6528 48.9357 42.2352 45.0976 43.8183C42.2191 45.0056 35.1396 46.377 30.7048 46.377C26.2699 46.377 23.4933 46.0628 21.0111 45.1988C18.5288 44.3348 15.7498 43.2803 14.3085 40.6528C11.8341 36.1421 11.8643 31.9263 13.4333 27.1865C14.6852 23.4049 16.9519 19.4595 22.0691 15.9921C27.1862 12.5246 31.7729 12.2382 35.2519 12.9245C39.4603 13.7547 42.0769 16.6318 43.4984 19.8302C46.0572 25.5873 43.2745 35.7248 32.9437 36.7818C24.5052 37.3089 24.0949 26.4216 30.0696 22.3642" stroke="#1B2A39" stroke-width="2.85603" stroke-linecap="round" stroke-linejoin="round"/>
<mask id="path-2-inside-1" fill="white">
<path fill-rule="evenodd" clip-rule="evenodd" d="M57.4146 34.8733C58.4299 32.474 58.9422 29.6439 58.8531 26.3252C58.4522 11.3897 45.984 -0.392083 31.0047 0.00999254C16.0253 0.412068 4.20713 12.8457 4.60803 27.7813C4.81092 35.3397 8.11397 40.197 13.2689 43.0992C11.0984 44.456 8.02261 46.0018 2.05109 47.6361C-5.96095 49.8289 10.311 53.2599 36.7315 53.2599C63.152 53.2599 81 34.5683 81 28.3716C81 26.9061 80.0017 26.67 78.1278 27.1639C78.1385 26.92 78.144 26.6717 78.144 26.4199C78.144 22.9835 77.1173 17.9538 75.8508 17.9538C75.0352 17.9538 75.2701 20.0399 75.5407 22.443C75.6903 23.7713 75.8508 25.1966 75.8508 26.4199C75.8508 26.95 75.8207 27.4646 75.7744 27.9558C75.0618 28.2291 74.2809 28.5476 73.4347 28.8995C73.703 27.9024 73.8599 26.6975 73.8599 25.3999C73.8599 21.9635 72.7599 16.9338 71.403 16.9338C70.5291 16.9338 70.7808 19.0199 71.0707 21.423C71.231 22.7513 71.403 24.1766 71.403 25.3999C71.403 26.7582 71.1909 28.0148 71.0183 29.038C70.9611 29.3774 70.9081 29.6912 70.8687 29.9744C67.223 31.4995 62.6868 33.3424 57.4146 34.8733Z"/>
</mask>
<path d="M58.8531 26.3252L55.9981 26.4019L55.9981 26.4019L58.8531 26.3252ZM57.4146 34.8733L54.7844 33.7603L52.4443 39.2905L58.2111 37.616L57.4146 34.8733ZM31.0047 0.00999254L30.928 -2.84501L31.0047 0.00999254ZM4.60803 27.7813L7.46304 27.7046L4.60803 27.7813ZM13.2689 43.0992L14.7827 45.521L18.8625 42.9708L14.67 40.6105L13.2689 43.0992ZM2.05109 47.6361L2.80501 50.3909L2.80501 50.3909L2.05109 47.6361ZM78.1278 27.1639L75.2745 27.0387L75.1043 30.9144L78.8556 29.9257L78.1278 27.1639ZM75.5407 22.443L78.3788 22.1234L78.3788 22.1234L75.5407 22.443ZM75.7744 27.9558L76.7971 30.6225L78.4515 29.988L78.6178 28.224L75.7744 27.9558ZM73.4347 28.8995L70.6768 28.1573L69.1671 33.7673L74.5314 31.5366L73.4347 28.8995ZM71.0707 21.423L68.2353 21.7651L68.2353 21.7651L71.0707 21.423ZM71.0183 29.038L73.8346 29.5131L73.8346 29.5131L71.0183 29.038ZM70.8687 29.9744L71.9709 32.6092L73.4731 31.9808L73.6975 30.368L70.8687 29.9744ZM55.9981 26.4019C56.0781 29.381 55.6158 31.7953 54.7844 33.7603L60.0449 35.9862C61.2439 33.1527 61.8063 29.9068 61.7081 26.2486L55.9981 26.4019ZM31.0813 2.865C44.4918 2.50503 55.6397 13.0509 55.9981 26.4019L61.7081 26.2486C61.2647 9.72837 47.4763 -3.2892 30.928 -2.84501L31.0813 2.865ZM7.46304 27.7046C7.10467 14.3537 17.6708 3.22496 31.0813 2.865L30.928 -2.84501C14.3798 -2.40082 1.30959 11.3377 1.75303 27.8579L7.46304 27.7046ZM14.67 40.6105C10.4172 38.2162 7.63983 34.291 7.46304 27.7046L1.75303 27.8579C1.982 36.3885 5.81071 42.1779 11.8677 45.5879L14.67 40.6105ZM2.80501 50.3909C9.00409 48.6943 12.3433 47.0459 14.7827 45.521L11.755 40.6774C9.85351 41.866 7.04113 43.3094 1.29716 44.8814L2.80501 50.3909ZM36.7315 50.4039C23.6108 50.4039 13.1206 49.5498 6.97881 48.4583C5.44879 48.1864 4.24199 47.909 3.35787 47.6436C2.37841 47.3497 2.08683 47.1536 2.12571 47.1838C2.13705 47.1926 2.60641 47.5389 2.78971 48.3037C3.02328 49.2782 2.6081 50.0495 2.29083 50.406C2.04893 50.6778 1.86661 50.728 2.02975 50.6524C2.15208 50.5958 2.39539 50.503 2.80501 50.3909L1.29716 44.8814C0.705284 45.0434 0.136807 45.2343 -0.36984 45.4689C-0.83566 45.6845 -1.46413 46.0332 -1.97627 46.6087C-2.56378 47.2689 -3.07329 48.3489 -2.76503 49.6351C-2.50704 50.7114 -1.79399 51.3722 -1.37683 51.696C-0.526328 52.3562 0.642158 52.7924 1.71598 53.1147C2.88516 53.4655 4.32487 53.7883 5.97937 54.0823C12.5756 55.2545 23.4317 56.1159 36.7315 56.1159V50.4039ZM78.144 28.3716C78.144 28.5296 78.0647 29.047 77.6155 29.9661C77.1883 30.8403 76.5117 31.9038 75.5629 33.0972C73.6674 35.4812 70.8193 38.2154 67.1331 40.8015C59.7653 45.9707 49.2601 50.4039 36.7315 50.4039V56.1159C50.6234 56.1159 62.2524 51.2034 70.4137 45.4775C74.4922 42.6162 77.7573 39.5156 80.034 36.6521C81.1712 35.2217 82.0954 33.8083 82.7475 32.4742C83.3775 31.185 83.856 29.7628 83.856 28.3716H78.144ZM78.8556 29.9257C79.2253 29.8282 79.4491 29.7953 79.562 29.7876C79.6906 29.7788 79.5444 29.8118 79.2685 29.7089C79.1169 29.6524 78.9328 29.5568 78.7497 29.4033C78.5644 29.2478 78.4212 29.0671 78.3199 28.8854C78.1274 28.5399 78.144 28.3 78.144 28.3716H83.856C83.856 27.7105 83.7478 26.8915 83.3096 26.105C82.8337 25.2509 82.0973 24.6676 81.2647 24.357C79.8697 23.8367 78.368 24.147 77.3999 24.4022L78.8556 29.9257ZM75.288 26.4199C75.288 26.63 75.2834 26.8365 75.2745 27.0387L80.981 27.2892C80.9936 27.0034 81 26.7133 81 26.4199H75.288ZM75.8508 20.8098C75.0046 20.8098 74.4855 20.3822 74.3284 20.2305C74.1715 20.0788 74.1481 19.9935 74.2119 20.1157C74.3332 20.3478 74.5148 20.8319 74.699 21.5804C75.0594 23.0454 75.288 24.9329 75.288 26.4199H81C81 24.4705 80.7153 22.1249 80.2457 20.216C80.0149 19.2776 79.7024 18.2895 79.2749 17.4711C79.0644 17.068 78.7531 16.5629 78.2976 16.1228C77.8419 15.6825 77.0137 15.0978 75.8508 15.0978V20.8098ZM78.3788 22.1234C78.2354 20.8496 78.1374 19.9335 78.1443 19.3299C78.1482 18.9921 78.1877 19.0742 78.0905 19.3304C78.033 19.4822 77.8674 19.8551 77.4646 20.2047C77.0036 20.605 76.42 20.8098 75.8508 20.8098V15.0978C75.0778 15.0978 74.3231 15.3677 73.7198 15.8915C73.1749 16.3646 72.896 16.9193 72.7499 17.3042C72.4759 18.0266 72.4381 18.7804 72.4326 19.2646C72.4207 20.3048 72.5755 21.6332 72.7027 22.7626L78.3788 22.1234ZM78.7069 26.4199C78.7069 25.0045 78.5236 23.409 78.3788 22.1234L72.7027 22.7626C72.8571 24.1337 72.9948 25.3886 72.9948 26.4199H78.7069ZM78.6178 28.224C78.6707 27.6632 78.7069 27.0573 78.7069 26.4199H72.9948C72.9948 26.8426 72.9707 27.2659 72.931 27.6877L78.6178 28.224ZM74.5314 31.5366C75.37 31.1878 76.1219 30.8814 76.7971 30.6225L74.7517 25.2892C74.0016 25.5768 73.1918 25.9074 72.3381 26.2624L74.5314 31.5366ZM71.0039 25.3999C71.0039 26.4799 70.8719 27.4322 70.6768 28.1573L76.1926 29.6417C76.5342 28.3726 76.7159 26.9151 76.7159 25.3999H71.0039ZM71.403 19.7898C70.6369 19.7898 70.1506 19.4265 69.9854 19.2775C69.8273 19.135 69.8026 19.053 69.867 19.1682C69.992 19.3915 70.1832 19.865 70.3786 20.6061C70.7612 22.0579 71.0039 23.9298 71.0039 25.3999H76.7159C76.7159 23.4336 76.4086 21.0725 75.902 19.1503C75.6527 18.2044 75.3145 17.2057 74.8516 16.3786C74.6221 15.9685 74.2888 15.4667 73.8109 15.0357C73.3258 14.5982 72.5083 14.0777 71.403 14.0777V19.7898ZM73.9062 21.0809C73.7519 19.8019 73.649 18.9003 73.6562 18.3122C73.6603 17.9824 73.7019 18.091 73.5874 18.3728C73.5178 18.544 73.3361 18.9131 72.924 19.2471C72.4637 19.62 71.9117 19.7898 71.403 19.7898V14.0777C70.6758 14.0777 69.9404 14.3127 69.3278 14.8092C68.7633 15.2666 68.4602 15.8174 68.2958 16.2218C67.9917 16.9698 67.9506 17.7501 67.9446 18.2422C67.9317 19.298 68.0996 20.6409 68.2353 21.7651L73.9062 21.0809ZM74.259 25.3999C74.259 23.9709 74.0609 22.3633 73.9062 21.0808L68.2353 21.7651C68.4011 23.1393 68.5469 24.3823 68.5469 25.3999H74.259ZM73.8346 29.5131C74.0043 28.5071 74.259 27.0291 74.259 25.3999H68.5469C68.5469 26.4873 68.3776 27.5226 68.2021 28.5628L73.8346 29.5131ZM73.6975 30.368C73.7301 30.1337 73.7755 29.8633 73.8346 29.5131L68.2021 28.5628C68.1466 28.8915 68.0862 29.2486 68.0399 29.5807L73.6975 30.368ZM58.2111 37.616C63.6454 36.038 68.3041 34.1431 71.9709 32.6092L69.7665 27.3396C66.1419 28.8559 61.7281 30.6467 56.6182 32.1305L58.2111 37.616Z" fill="#1B2A39" mask="url(#path-2-inside-1)"/>
</svg>
